ffmpeg version 4.3 Copyright (c) 2000-2020 the FFmpeg developers
  built with gcc 7.3.0 (crosstool-NG 1.23.0.449-a04d0)
  configuration: --prefix=/home/yfliu/anaconda3 --cc=/opt/conda/conda-bld/ffmpeg_1597178665428/_build_env/bin/x86_64-conda_cos6-linux-gnu-cc --disable-doc --disable-openssl --enable-avresample --enable-gnutls --enable-hardcoded-tables --enable-libfreetype --enable-libopenh264 --enable-pic --enable-pthreads --enable-shared --disable-static --enable-version3 --enable-zlib --enable-libmp3lame
  libavutil      56. 51.100 / 56. 51.100
  libavcodec     58. 91.100 / 58. 91.100
  libavformat    58. 45.100 / 58. 45.100
  libavdevice    58. 10.100 / 58. 10.100
  libavfilter     7. 85.100 /  7. 85.100
  libavresample   4.  0.  0 /  4.  0.  0
  libswscale      5.  7.100 /  5.  7.100
  libswresample   3.  7.100 /  3.  7.100
Input #0, mov,mp4,m4a,3gp,3g2,mj2, from '/data0/yfliu/lrs3//test/mgcjr1yz7ow/00005.mp4':
  Metadata:
    major_brand     : isom
    minor_version   : 512
    compatible_brands: isomiso2mp41
    encoder         : Lavf57.83.100
  Duration: 00:00:02.14, start: 0.000000, bitrate: 586 kb/s
    Stream #0:0(und): Video: mpeg4 (Simple Profile) (mp4v / 0x7634706D), yuv420p, 224x224 [SAR 1:1 DAR 1:1], 521 kb/s, 25 fps, 25 tbr, 12800 tbn, 25 tbc (default)
    Metadata:
      handler_name    : VideoHandler
    Stream #0:1(und): Audio: aac (LC) (mp4a / 0x6134706D), 16000 Hz, mono, fltp, 71 kb/s (default)
    Metadata:
      handler_name    : SoundHandler
Guessed Channel Layout for Input Stream #1.0 : mono
Input #1, wav, from 'voice_interpolation/0.4/mgcjr1yz7ow/00005_test_9uOMectkCCs_00001_vc.mp3':
  Duration: 00:00:02.11, bitrate: 512 kb/s
    Stream #1:0: Audio: pcm_f32le ([3][0][0][0] / 0x0003), 16000 Hz, mono, flt, 512 kb/s
Stream mapping:
  Stream #0:0 -> #0:0 (copy)
  Stream #1:0 -> #0:1 (pcm_f32le (native) -> aac (native))
Press [q] to stop, [?] for help
Output #0, mp4, to 'voice_interpolation/0.4/mgcjr1yz7ow/00005_test_9uOMectkCCs_00001_vc.mp4':
  Metadata:
    major_brand     : isom
    minor_version   : 512
    compatible_brands: isomiso2mp41
    encoder         : Lavf58.45.100
    Stream #0:0(und): Video: mpeg4 (Simple Profile) (mp4v / 0x7634706D), yuv420p, 224x224 [SAR 1:1 DAR 1:1], q=2-31, 521 kb/s, 25 fps, 25 tbr, 12800 tbn, 12800 tbc (default)
    Metadata:
      handler_name    : VideoHandler
    Stream #0:1: Audio: aac (LC) (mp4a / 0x6134706D), 16000 Hz, mono, fltp, 69 kb/s
    Metadata:
      encoder         : Lavc58.91.100 aac
frame=   52 fps=0.0 q=-1.0 Lsize=     152kB time=00:00:02.04 bitrate= 609.0kbits/s speed= 250x    
video:133kB audio:17kB subtitle:0kB other streams:0kB global headers:0kB muxing overhead: 1.507991%
[aac @ 0x562e0c27d380] Qavg: 138.362
